<?xml version="1.0" standalone="no"?><!DOCTYPE svg PUBLIC "-//W3C//DTD SVG 1.1//EN" "http://www.w3.org/Graphics/SVG/1.1/DTD/svg11.dtd"><svg t="1603874182787" class="icon" viewBox="0 0 1261 1024" version="1.1" xmlns="http://www.w3.org/2000/svg" p-id="3679" xmlns:xlink="http://www.w3.org/1999/xlink" width="246.2890625" height="200"><defs><style type="text/css"></style></defs><path d="M0 99.587a99.587 99.587 0 1 0 199.174 0A99.587 99.587 0 1 0 0 99.587zM307.814 33.95h953.837v131.274H307.814zM0 511.838a99.587 99.587 0 1 0 199.174 0 99.587 99.587 0 1 0-199.174 0z m307.814-65.637h953.837v131.274H307.814zM0 924.09a99.587 99.587 0 1 0 199.174 0A99.587 99.587 0 1 0 0 924.09z m307.814-65.637h953.837v131.274H307.814z" fill="#ffffff" p-id="3680"></path></svg>